<?xml version="1.0" encoding="utf-8"?>
<!-- Generator: Adobe Illustrator 27.1.1, SVG Export Plug-In . SVG Version: 6.00 Build 0)  -->
<svg version="1.1" id="Layer_1" xmlns="http://www.w3.org/2000/svg" xmlns:xlink="http://www.w3.org/1999/xlink" x="0px" y="0px"
	 viewBox="0 0 1920 1080" style="enable-background:new 0 0 1920 1080;" xml:space="preserve">
<style type="text/css">
	.st0{fill:#FFFFFF;}
	.st1{fill:#42B4E7;}
	.st2{fill:#ED2529;}
	.st3{fill:#EC1C24;}
</style>
<rect width="1920" height="1080"/>
<g>
	<g>
		<path class="st0" d="M595.84,739.26c-3.36,0-6.24-0.55-8.64-1.65c-2.41-1.09-4.24-2.7-5.52-4.8c-1.27-2.11-1.91-4.64-1.91-7.59
			c0-3.13,0.56-6.16,1.67-9.07c1.11-2.92,2.7-5.54,4.75-7.85c2.05-2.31,4.51-4.14,7.39-5.51c2.88-1.36,6.09-2.03,9.62-2.03
			c3.53,0,6.17,0.56,7.9,1.7c1.73,1.13,2.6,2.63,2.6,4.51c0,1.49-0.71,2.65-2.12,3.47c-1.42,0.82-3.2,1.22-5.36,1.22
			c0-0.73-0.05-1.53-0.16-2.4c-0.11-0.87-0.31-1.7-0.61-2.48c-0.3-0.78-0.75-1.43-1.35-1.93c-0.6-0.5-1.4-0.76-2.39-0.76
			c-1.66,0-3.18,0.45-4.56,1.33s-2.6,2.06-3.66,3.55c-1.06,1.48-1.96,3.15-2.7,5.03s-1.3,3.81-1.67,5.79
			c-0.37,1.99-0.56,3.9-0.56,5.74c0,1.98,0.34,3.67,1.04,5.06c0.69,1.39,1.71,2.45,3.07,3.19c1.36,0.72,3.05,1.09,5.06,1.09
			c2.44,0,4.42-0.5,5.94-1.49c1.52-0.99,2.72-2.07,3.6-3.26c0.21,0.14,0.42,0.38,0.61,0.7c0.2,0.33,0.29,0.69,0.29,1.07
			c0,1.15-0.48,2.28-1.43,3.41c-0.95,1.14-2.34,2.07-4.16,2.82C600.78,738.88,598.52,739.26,595.84,739.26z"/>
		<path class="st0" d="M620.81,739.26c-2.01,0-3.57-0.48-4.66-1.44c-1.09-0.95-1.64-2.26-1.64-3.94c0-0.48,0.03-1.04,0.08-1.67
			c0.05-0.62,0.15-1.32,0.29-2.09c0.14-0.77,0.3-1.58,0.48-2.45l4.61-21.38c0.11-0.45,0.2-0.9,0.27-1.36
			c0.07-0.45,0.11-0.74,0.11-0.89c0-0.94-0.21-1.54-0.64-1.8c-0.43-0.26-1.15-0.39-2.17-0.39h-1.11l0.48-2.76h12.83l-6.31,28.63
			c-0.14,0.62-0.27,1.23-0.37,1.8c-0.11,0.57-0.2,1.14-0.27,1.67c-0.07,0.54-0.1,1.05-0.1,1.54c0,0.76,0.17,1.35,0.5,1.75
			c0.34,0.4,0.79,0.6,1.36,0.6c0.56,0,1.07-0.1,1.54-0.31c0.46-0.21,0.99-0.5,1.59-0.89l1.27,1.77c-0.85,0.87-1.93,1.69-3.24,2.45
			C624.38,738.87,622.75,739.26,620.81,739.26z"/>
		<path class="st0" d="M640.32,739.26c-1.66,0-3.06-0.42-4.19-1.26c-1.13-0.84-1.98-1.97-2.54-3.41c-0.57-1.45-0.85-3.07-0.85-4.88
			c0-1.63,0.23-3.35,0.69-5.14c0.46-1.79,1.15-3.53,2.07-5.21c0.92-1.69,2.05-3.22,3.39-4.59c1.34-1.38,2.89-2.47,4.64-3.28
			c1.75-0.82,3.7-1.23,5.86-1.23c0.92,0,1.86,0.09,2.81,0.26c0.95,0.17,1.84,0.4,2.65,0.67c0.81,0.28,1.49,0.57,2.01,0.89l2.81-1.25
			h2.81l-3.5,16.28c-0.07,0.38-0.18,0.92-0.34,1.61c-0.16,0.7-0.29,1.4-0.4,2.11c-0.11,0.72-0.16,1.3-0.16,1.75
			c0,0.87,0.17,1.52,0.5,1.93c0.33,0.42,0.78,0.63,1.35,0.63c0.49,0,0.97-0.11,1.43-0.31c0.46-0.21,0.97-0.48,1.54-0.79l1.16,2.09
			c-0.6,0.45-1.31,0.92-2.12,1.41c-0.82,0.49-1.74,0.89-2.78,1.23c-1.04,0.33-2.2,0.5-3.47,0.5c-1.55,0-2.81-0.36-3.76-1.07
			c-0.95-0.72-1.43-1.75-1.43-3.11c0-0.55,0.02-1.09,0.08-1.62c0.05-0.52,0.15-1.11,0.29-1.77h-0.37c-0.85,1.6-1.73,2.97-2.65,4.1
			c-0.92,1.13-1.97,1.99-3.15,2.58C643.51,738.96,642.05,739.26,640.32,739.26z M643.65,735.08c0.78,0,1.57-0.32,2.39-0.96
			c0.81-0.64,1.59-1.51,2.33-2.6c0.74-1.1,1.4-2.32,1.99-3.68c0.58-1.36,1.01-2.72,1.3-4.12l1.86-8.66
			c-0.35-0.48-0.83-0.85-1.43-1.09s-1.26-0.37-1.96-0.37c-1.24,0-2.35,0.37-3.34,1.1s-1.86,1.7-2.6,2.92
			c-0.74,1.22-1.37,2.54-1.88,3.97c-0.51,1.43-0.89,2.86-1.14,4.31c-0.25,1.44-0.37,2.74-0.37,3.88c0,2.02,0.27,3.41,0.82,4.18
			C642.16,734.7,642.84,735.08,643.65,735.08z"/>
		<path class="st0" d="M675.68,739.26c-2.01,0-3.57-0.48-4.66-1.44c-1.1-0.95-1.65-2.26-1.65-3.94c0-0.48,0.03-1.04,0.08-1.67
			c0.05-0.62,0.15-1.32,0.29-2.09s0.3-1.58,0.48-2.45l2.07-9.7c0.11-0.45,0.2-0.9,0.27-1.36c0.07-0.45,0.11-0.75,0.11-0.89
			c0-0.94-0.21-1.54-0.64-1.8c-0.42-0.26-1.15-0.39-2.17-0.39h-0.95l0.53-2.77h12.51l-3.66,16.96c-0.14,0.62-0.27,1.23-0.37,1.8
			c-0.11,0.57-0.2,1.14-0.26,1.67c-0.07,0.54-0.11,1.05-0.11,1.54c0,0.76,0.17,1.35,0.5,1.75c0.33,0.4,0.78,0.6,1.35,0.6
			c0.56,0,1.07-0.1,1.54-0.31c0.46-0.21,0.99-0.5,1.59-0.89l1.27,1.77c-0.85,0.87-1.93,1.69-3.24,2.45
			C679.25,738.87,677.62,739.26,675.68,739.26z M678.27,706.08c-1.17,0-2.15-0.27-2.94-0.81c-0.79-0.54-1.19-1.35-1.19-2.43
			c0-1.01,0.23-1.82,0.69-2.45c0.46-0.62,1.06-1.09,1.81-1.38c0.74-0.29,1.55-0.44,2.44-0.44c1.13,0,2.12,0.26,2.97,0.76
			c0.85,0.5,1.27,1.35,1.27,2.53c0,0.94-0.24,1.72-0.74,2.35c-0.49,0.62-1.12,1.09-1.88,1.41
			C679.92,705.93,679.12,706.08,678.27,706.08z"/>
		<path class="st0" d="M727.04,739.09c-1.34,0-2.48-0.21-3.42-0.65c-0.94-0.44-1.65-1.06-2.15-1.85c-0.5-0.8-0.74-1.76-0.74-2.87
			c0-0.73,0.07-1.62,0.21-2.66c0.14-1.04,0.35-2.22,0.64-3.55l0.9-4.12c0.11-0.45,0.24-1.03,0.4-1.72c0.16-0.7,0.29-1.42,0.4-2.16
			c0.11-0.75,0.16-1.4,0.16-1.96c0-0.66-0.13-1.32-0.4-1.98c-0.27-0.66-0.84-0.99-1.72-0.99c-0.67,0-1.34,0.27-2.01,0.81
			s-1.32,1.25-1.93,2.14c-0.62,0.89-1.19,1.85-1.72,2.89c-0.53,1.04-0.97,2.08-1.33,3.11c-0.35,1.03-0.6,1.94-0.74,2.74l-0.42,2.19
			c-0.11,0.55-0.23,1.28-0.37,2.16s-0.28,1.82-0.42,2.82c-0.14,0.99-0.27,1.95-0.37,2.89c-0.11,0.94-0.18,1.74-0.21,2.4h-8.22
			c0.07-0.7,0.17-1.54,0.29-2.53c0.12-0.99,0.28-2.03,0.48-3.13c0.19-1.09,0.39-2.16,0.58-3.21c0.2-1.04,0.38-1.97,0.56-2.76
			l0.79-3.65c0.21-1.01,0.39-1.89,0.53-2.63c0.14-0.75,0.24-1.39,0.29-1.93c0.05-0.54,0.08-0.96,0.08-1.28
			c0-0.62-0.09-1.26-0.27-1.9s-0.67-0.96-1.48-0.96c-0.88,0-1.75,0.38-2.6,1.12c-0.85,0.75-1.64,1.7-2.36,2.87
			c-0.73,1.16-1.34,2.36-1.86,3.6c-0.51,1.23-0.88,2.33-1.09,3.31l-2.97,13.09h-7.95l4.45-20.76c0.07-0.31,0.15-0.7,0.24-1.18
			c0.09-0.47,0.13-0.82,0.13-1.06c0-0.94-0.21-1.54-0.64-1.8c-0.42-0.26-1.15-0.39-2.17-0.39h-0.95l0.48-2.77h12.3l-1.01,5.32h0.37
			c1.41-2.12,2.91-3.63,4.48-4.51c1.57-0.89,3.4-1.33,5.48-1.33c1.45,0,2.59,0.25,3.42,0.75c0.83,0.51,1.43,1.19,1.8,2.06
			c0.37,0.87,0.57,1.86,0.61,2.97c0,0.04,0,0.08,0,0.13c0,0.06,0,0.11,0,0.18h0.32c1.31-2.09,2.75-3.65,4.32-4.7
			c1.57-1.04,3.49-1.56,5.75-1.56c1.45,0,2.6,0.28,3.44,0.83c0.85,0.56,1.46,1.29,1.83,2.19c0.37,0.91,0.56,1.89,0.56,2.97
			c0,0.87-0.12,1.84-0.34,2.92c-0.23,1.08-0.43,2.07-0.61,2.97l-1.22,5.58c-0.21,0.94-0.39,1.82-0.53,2.66
			c-0.14,0.83-0.21,1.62-0.21,2.34c0,0.77,0.17,1.35,0.5,1.75c0.34,0.4,0.79,0.6,1.35,0.6s1.09-0.1,1.56-0.31
			c0.48-0.21,1-0.5,1.56-0.89l1.27,1.77c-0.85,0.87-1.93,1.69-3.23,2.45C730.61,738.72,728.99,739.09,727.04,739.09z"/>
		<path class="st0" d="M746.92,739.26c-2.01,0-3.77-0.23-5.27-0.68c-1.5-0.45-2.67-1.11-3.5-1.98c-0.83-0.87-1.25-1.9-1.25-3.08
			c0-1.08,0.27-1.94,0.82-2.58c0.55-0.65,1.26-1.11,2.15-1.41c0.88-0.29,1.78-0.44,2.7-0.44c0,1.22,0.17,2.36,0.5,3.44
			c0.34,1.08,0.89,1.95,1.67,2.61c0.78,0.66,1.8,0.99,3.07,0.99c0.99,0,1.87-0.14,2.63-0.44s1.36-0.74,1.8-1.33
			c0.44-0.59,0.66-1.3,0.66-2.14c0-1.22-0.48-2.17-1.43-2.87c-0.95-0.7-2.48-1.53-4.56-2.5c-2.05-0.97-3.69-2.09-4.93-3.36
			c-1.24-1.27-1.86-2.92-1.86-4.93c0-1.7,0.48-3.17,1.46-4.41c0.97-1.23,2.35-2.19,4.13-2.87c1.78-0.67,3.91-1.01,6.39-1.01
			c2.4,0,4.31,0.23,5.73,0.7c1.41,0.47,2.43,1.07,3.05,1.8c0.62,0.73,0.93,1.53,0.93,2.4c0,1.39-0.55,2.4-1.65,3.02
			c-1.1,0.63-2.58,0.94-4.45,0.94c0-0.94-0.13-1.86-0.4-2.77c-0.27-0.9-0.69-1.66-1.27-2.27c-0.58-0.6-1.39-0.91-2.41-0.91
			c-1.38,0-2.46,0.35-3.26,1.06c-0.79,0.72-1.19,1.58-1.19,2.58c0,1.15,0.49,2.05,1.46,2.71c0.97,0.67,2.48,1.45,4.53,2.35
			c2.3,1.01,3.98,2.16,5.03,3.45c1.06,1.28,1.59,2.9,1.59,4.85c0,1.88-0.49,3.5-1.46,4.85c-0.97,1.36-2.41,2.4-4.32,3.13
			S749.75,739.26,746.92,739.26z"/>
		<path class="st0" d="M791.24,739.26c-2.83,0-5.16-0.43-7-1.28c-1.84-0.85-3.2-2.02-4.08-3.52c-0.88-1.5-1.33-3.16-1.33-5.01
			c0-2.33,0.53-4.22,1.59-5.68c1.06-1.46,2.48-2.66,4.24-3.6c1.77-0.94,3.68-1.77,5.73-2.5c-0.78-1.32-1.39-2.63-1.83-3.94
			c-0.44-1.31-0.66-2.57-0.66-3.78c0-2.99,1.04-5.24,3.13-6.73c2.09-1.49,5-2.24,8.75-2.24c3.25,0,5.64,0.65,7.16,1.96
			c1.52,1.31,2.28,2.91,2.28,4.82c0,1.6-0.34,2.96-1.01,4.07c-0.67,1.11-1.76,2.14-3.26,3.05c-1.5,0.92-3.53,1.89-6.07,2.9
			l6.52,8.45c0.6-1.26,1.12-2.54,1.56-3.87c0.44-1.32,0.78-2.6,1.03-3.86l0.43-1.98h10.6l-0.58,2.77h-0.48
			c-0.78,0-1.55,0.07-2.31,0.21c-0.76,0.14-1.48,0.46-2.15,0.96s-1.29,1.28-1.86,2.32c-0.53,1.01-1.1,2.09-1.7,3.24
			c-0.6,1.15-1.29,2.31-2.07,3.5l3.34,4.33c0.35,0.45,0.77,0.84,1.25,1.17c0.48,0.33,1.03,0.57,1.64,0.73
			c0.62,0.16,1.3,0.23,2.04,0.23h0.37l-0.58,2.77h-10.18l-2.65-3.6c-1.45,1.21-3.15,2.21-5.09,2.97
			C796.08,738.87,793.82,739.26,791.24,739.26z M792.88,735.76c1.66,0,3.16-0.31,4.51-0.94c1.34-0.63,2.56-1.46,3.66-2.5
			l-8.64-11.79c-1.38,0.77-2.49,1.57-3.34,2.4c-0.85,0.84-1.47,1.75-1.86,2.74c-0.39,0.99-0.58,2.11-0.58,3.37
			c0,1.28,0.24,2.43,0.74,3.44c0.49,1.01,1.21,1.81,2.15,2.4S791.57,735.76,792.88,735.76z M797.12,715.26
			c1.45-0.63,2.61-1.26,3.5-1.88c0.88-0.62,1.53-1.33,1.93-2.11c0.41-0.78,0.61-1.71,0.61-2.79c0-1.39-0.32-2.47-0.95-3.24
			c-0.63-0.77-1.57-1.15-2.81-1.15c-1.24,0-2.27,0.47-3.1,1.41c-0.83,0.94-1.25,2.28-1.25,4.02c0,0.97,0.18,1.92,0.53,2.85
			C795.94,713.29,796.45,714.25,797.12,715.26z"/>
		<path class="st0" d="M832.05,738.73l0.59-2.77h0.69c0.74,0,1.45-0.06,2.12-0.21c0.67-0.14,1.25-0.43,1.75-0.89
			c0.49-0.45,0.83-1.13,1.01-2.04l5.41-25.04c0.11-0.48,0.18-0.87,0.24-1.14c0.05-0.28,0.08-0.49,0.08-0.63
			c0-0.76-0.35-1.25-1.06-1.46c-0.71-0.21-1.63-0.31-2.76-0.31h-0.69l0.59-2.76h15.16c4.17,0,7.46,0.86,9.89,2.58
			c2.42,1.72,3.63,4.25,3.63,7.58c0,1.33-0.21,2.73-0.64,4.23c-0.42,1.5-1.21,2.89-2.36,4.2c-1.15,1.3-2.79,2.36-4.93,3.18
			s-4.9,1.23-8.29,1.23h-4.03l-1.91,8.5c-0.04,0.18-0.08,0.38-0.13,0.63c-0.05,0.24-0.08,0.43-0.08,0.57c0,0.77,0.37,1.26,1.11,1.46
			c0.74,0.21,1.66,0.31,2.76,0.31h1.75l-0.58,2.77H832.05z M851.3,721.46c2.15,0,3.87-0.41,5.14-1.25c1.27-0.84,2.19-1.97,2.76-3.42
			c0.57-1.44,0.85-3.1,0.85-4.98c0-2.6-0.57-4.46-1.72-5.58s-2.61-1.67-4.37-1.67h-1.17l-3.71,16.9H851.3z"/>
		<path class="st0" d="M874.89,717.77c0.07-0.28,0.14-0.67,0.21-1.15c0.07-0.49,0.11-0.91,0.11-1.26c0-0.66-0.21-1.13-0.64-1.4
			c-0.42-0.28-1.15-0.42-2.17-0.42h-0.95l0.48-2.77h11.72l-1.11,7.15h0.27c0.81-1.67,1.64-3.08,2.49-4.23s1.83-2.01,2.94-2.58
			c1.11-0.57,2.5-0.86,4.16-0.86c1.87,0,3.27,0.35,4.19,1.04c0.92,0.7,1.38,1.7,1.38,3.02c0,1.81-0.54,3.16-1.62,4.04
			c-1.08,0.89-2.63,1.33-4.64,1.33c0-1.6-0.18-2.87-0.53-3.78c-0.35-0.92-1.04-1.38-2.07-1.38c-0.74,0-1.54,0.43-2.38,1.28
			c-0.85,0.85-1.67,2-2.47,3.44s-1.53,3.07-2.2,4.87c-0.67,1.81-1.22,3.68-1.65,5.58l-2.01,9.02h-8L874.89,717.77z"/>
		<path class="st0" d="M909.93,739.26c-3.32,0-6.03-0.91-8.11-2.72s-3.13-4.55-3.13-8.24c0-1.57,0.22-3.19,0.66-4.85
			c0.44-1.67,1.12-3.29,2.04-4.88c0.92-1.58,2.07-2.99,3.44-4.25c1.38-1.25,3-2.24,4.88-2.97s3.99-1.09,6.36-1.09
			c2.05,0,3.91,0.38,5.57,1.12c1.66,0.74,3,1.92,4.01,3.52c1.01,1.6,1.51,3.7,1.51,6.31c0,1.5-0.21,3.08-0.64,4.75
			c-0.42,1.67-1.08,3.28-1.96,4.85c-0.88,1.56-2.01,2.98-3.39,4.25c-1.38,1.27-2.99,2.28-4.85,3.05
			C914.47,738.87,912.33,739.26,909.93,739.26z M910.89,735.5c1.13,0,2.14-0.36,3.02-1.09c0.88-0.73,1.65-1.7,2.31-2.92
			c0.65-1.21,1.19-2.54,1.61-3.97c0.43-1.43,0.74-2.83,0.95-4.22c0.21-1.39,0.32-2.65,0.32-3.76c0-2.05-0.36-3.53-1.09-4.43
			c-0.73-0.91-1.71-1.36-2.94-1.36c-1.1,0-2.08,0.36-2.94,1.07c-0.87,0.72-1.64,1.65-2.31,2.82c-0.67,1.16-1.23,2.45-1.67,3.83
			c-0.44,1.4-0.78,2.8-1.01,4.2c-0.23,1.41-0.34,2.7-0.34,3.89c0,1.43,0.16,2.58,0.48,3.44c0.32,0.87,0.78,1.5,1.4,1.91
			C909.3,735.3,910.04,735.5,910.89,735.5z"/>
		<path class="st0" d="M934.95,717.97c0.11-0.45,0.2-0.9,0.27-1.36c0.07-0.45,0.11-0.75,0.11-0.89c0-0.94-0.21-1.54-0.64-1.8
			c-0.42-0.26-1.15-0.39-2.17-0.39h-0.95l0.48-2.77h11.4l-1.38,6.94h0.37c0.81-1.46,1.66-2.75,2.54-3.89
			c0.88-1.13,1.93-2.01,3.13-2.63c1.2-0.62,2.67-0.94,4.4-0.94c2.33,0,4.21,0.81,5.62,2.43c1.42,1.62,2.12,3.95,2.12,7.02
			c0,1.49-0.22,3.12-0.66,4.87c-0.44,1.75-1.1,3.5-1.96,5.24c-0.87,1.74-1.95,3.32-3.26,4.75c-1.31,1.43-2.85,2.56-4.61,3.41
			c-1.77,0.85-3.75,1.28-5.93,1.28c-1.06,0-2.05-0.11-2.97-0.34c-0.92-0.23-1.73-0.52-2.44-0.87c-0.04,0.28-0.09,0.67-0.16,1.15
			c-0.07,0.49-0.16,0.94-0.27,1.36l-0.74,3.5c-0.11,0.45-0.2,0.9-0.27,1.36c-0.07,0.45-0.11,0.74-0.11,0.89
			c0,0.94,0.22,1.54,0.66,1.8c0.44,0.26,1.16,0.39,2.15,0.39h2.01l-0.48,2.76h-13.46L934.95,717.97z M943.22,735.92
			c1.13,0,2.17-0.35,3.13-1.07c0.95-0.71,1.79-1.65,2.52-2.82c0.72-1.16,1.33-2.45,1.83-3.86c0.5-1.4,0.88-2.82,1.14-4.22
			c0.26-1.41,0.4-2.7,0.4-3.89c0-0.94-0.08-1.84-0.24-2.71c-0.16-0.87-0.45-1.58-0.87-2.11c-0.43-0.54-1.01-0.81-1.75-0.81
			c-0.71,0-1.4,0.23-2.1,0.7c-0.69,0.47-1.34,1.09-1.96,1.85c-0.62,0.77-1.2,1.62-1.72,2.55c-0.53,0.94-0.97,1.9-1.33,2.87
			c-0.35,0.97-0.62,1.88-0.79,2.71l-2.01,9.34c0.32,0.31,0.82,0.64,1.51,0.96C941.66,735.75,942.41,735.92,943.22,735.92z"/>
		<path class="st0" d="M976.3,739.26c-2.16,0-4.13-0.4-5.91-1.18c-1.78-0.78-3.22-1.97-4.29-3.58c-1.08-1.6-1.62-3.61-1.62-6.04
			c0-1.57,0.24-3.19,0.74-4.88c0.49-1.68,1.23-3.32,2.2-4.9c0.97-1.58,2.18-3.01,3.63-4.28c1.45-1.27,3.13-2.28,5.03-3.02
			s4.03-1.12,6.36-1.12c2.51,0,4.47,0.54,5.88,1.62c1.42,1.08,2.12,2.59,2.12,4.53c0,1.88-0.68,3.62-2.04,5.22
			c-1.36,1.6-3.24,2.89-5.62,3.88c-2.39,0.99-5.1,1.49-8.14,1.49h-1.96c-0.04,0.35-0.06,0.7-0.08,1.04
			c-0.02,0.35-0.03,0.66-0.03,0.94c0,2.01,0.48,3.58,1.43,4.67c0.95,1.1,2.4,1.65,4.35,1.65c1.73,0,3.27-0.45,4.61-1.33
			c1.34-0.89,2.39-1.85,3.13-2.89c0.46,0.56,0.69,1.31,0.69,2.24c0,0.84-0.37,1.72-1.11,2.64c-0.74,0.92-1.88,1.7-3.42,2.35
			C980.73,738.93,978.74,739.26,976.3,739.26z M973.54,724.02c1.77,0,3.35-0.31,4.75-0.92c1.39-0.61,2.5-1.45,3.31-2.53
			c0.81-1.08,1.22-2.35,1.22-3.81c0-1.08-0.23-1.92-0.69-2.5c-0.46-0.59-1.1-0.89-1.91-0.89c-0.85,0-1.66,0.31-2.44,0.94
			c-0.78,0.63-1.49,1.46-2.12,2.5c-0.64,1.04-1.17,2.19-1.62,3.44c-0.44,1.26-0.77,2.5-0.98,3.76H973.54z"/>
		<path class="st0" d="M997.19,717.77c0.07-0.28,0.14-0.67,0.21-1.15c0.07-0.49,0.11-0.91,0.11-1.26c0-0.66-0.21-1.13-0.64-1.4
			c-0.42-0.28-1.15-0.42-2.17-0.42h-0.95l0.48-2.77h11.72l-1.11,7.15h0.27c0.81-1.67,1.64-3.08,2.49-4.23s1.83-2.01,2.94-2.58
			c1.11-0.57,2.5-0.86,4.16-0.86c1.87,0,3.27,0.35,4.19,1.04c0.92,0.7,1.38,1.7,1.38,3.02c0,1.81-0.54,3.16-1.62,4.04
			c-1.08,0.89-2.63,1.33-4.64,1.33c0-1.6-0.18-2.87-0.53-3.78c-0.35-0.92-1.04-1.38-2.07-1.38c-0.74,0-1.54,0.43-2.38,1.28
			c-0.85,0.85-1.67,2-2.47,3.44s-1.53,3.07-2.2,4.87c-0.67,1.81-1.22,3.68-1.65,5.58l-2.01,9.02h-8L997.19,717.77z"/>
		<path class="st0" d="M1030.37,739.26c-1.27,0-2.43-0.23-3.47-0.68c-1.04-0.45-1.87-1.13-2.49-2.04c-0.62-0.9-0.93-2.04-0.93-3.39
			c0-0.62,0.05-1.35,0.16-2.16c0.11-0.82,0.23-1.55,0.37-2.21l3.18-14.45h-4.08l0.58-2.66c0.74,0,1.56-0.13,2.47-0.39
			c0.9-0.26,1.83-0.67,2.78-1.25c0.95-0.57,1.89-1.32,2.81-2.24c0.92-0.92,1.81-2.06,2.65-3.42h3.07l-1.38,6.41h6.41l-0.74,3.55
			h-6.47l-3.18,14.3c-0.18,0.77-0.31,1.46-0.4,2.09c-0.09,0.62-0.13,1.18-0.13,1.67c0,0.87,0.24,1.53,0.74,1.96
			c0.49,0.43,1.13,0.65,1.91,0.65c0.81,0,1.56-0.14,2.25-0.42c0.69-0.28,1.32-0.59,1.88-0.94l1.22,1.98
			c-1.17,0.97-2.48,1.82-3.95,2.55C1034.18,738.89,1032.42,739.26,1030.37,739.26z"/>
		<path class="st0" d="M1038.64,751.25c-0.99,0-1.97-0.09-2.94-0.26c-0.97-0.18-1.83-0.4-2.57-0.68l0.8-2.92
			c0.42,0.14,1.01,0.29,1.75,0.45c0.74,0.16,1.66,0.23,2.76,0.23c1.62,0,3.11-0.21,4.45-0.62c1.34-0.42,2.59-0.99,3.74-1.72
			c1.15-0.73,2.22-1.58,3.23-2.55s1.99-2,2.94-3.08l-6.63-23.78c-0.18-0.7-0.43-1.25-0.74-1.65c-0.32-0.4-0.71-0.69-1.16-0.86
			c-0.46-0.18-1.04-0.26-1.75-0.26h-0.53l0.64-2.77h10.39l3.5,13.52c0.24,0.9,0.49,1.99,0.74,3.26c0.24,1.27,0.47,2.48,0.66,3.63
			c0.19,1.15,0.31,2.01,0.34,2.61h0.16c1.41-1.88,2.69-3.75,3.84-5.61c1.15-1.86,2.08-3.63,2.78-5.32c0.71-1.68,1.06-3.19,1.06-4.51
			c0-0.79-0.13-1.45-0.4-1.98c-0.26-0.53-0.64-0.92-1.11-1.2c-0.48-0.28-1.07-0.42-1.78-0.42c0-1.36,0.4-2.44,1.22-3.26
			c0.81-0.82,1.82-1.23,3.02-1.23c1.45,0,2.54,0.39,3.26,1.17c0.73,0.79,1.09,1.87,1.09,3.26c0,1.81-0.41,3.75-1.22,5.84
			c-0.81,2.09-1.96,4.35-3.44,6.78c-1.49,2.43-3.27,5.08-5.36,7.92c-1.91,2.65-3.66,4.97-5.27,6.97c-1.61,2-3.25,3.67-4.91,5.01
			c-1.66,1.33-3.49,2.35-5.48,3.02C1043.72,750.91,1041.36,751.25,1038.64,751.25z"/>
		<path class="st0" d="M1100.72,739.26c-2.9,0-5.32-0.33-7.26-0.99c-1.94-0.66-3.4-1.58-4.37-2.74c-0.97-1.16-1.46-2.46-1.46-3.89
			c0-1.63,0.65-2.86,1.94-3.68c1.29-0.82,2.94-1.23,4.96-1.23c0,2.12,0.3,3.87,0.9,5.24c0.6,1.38,1.43,2.4,2.49,3.08
			c1.06,0.67,2.28,1.01,3.66,1.01c1.98,0,3.53-0.52,4.64-1.57c1.11-1.04,1.67-2.31,1.67-3.8c0-0.97-0.18-1.84-0.53-2.61
			c-0.35-0.77-1-1.54-1.93-2.32c-0.94-0.78-2.29-1.65-4.05-2.58c-2.76-1.5-4.84-3.11-6.26-4.85c-1.41-1.74-2.12-3.98-2.12-6.73
			c0-2.09,0.56-3.93,1.7-5.53c1.13-1.6,2.72-2.85,4.77-3.76c2.05-0.9,4.47-1.36,7.26-1.36c2.61,0,4.79,0.26,6.52,0.78
			c1.73,0.53,3.03,1.22,3.9,2.09c0.87,0.87,1.3,1.86,1.3,2.97c0,1.39-0.54,2.49-1.62,3.31c-1.08,0.82-2.86,1.23-5.33,1.23
			c0-1.04-0.15-2.12-0.45-3.24c-0.3-1.11-0.83-2.05-1.59-2.82c-0.76-0.76-1.83-1.14-3.21-1.14c-0.92,0-1.83,0.19-2.73,0.57
			c-0.9,0.38-1.64,0.97-2.23,1.77c-0.58,0.8-0.87,1.81-0.87,3.03c0,1.22,0.26,2.21,0.77,3c0.51,0.78,1.3,1.5,2.36,2.16
			c1.06,0.66,2.37,1.43,3.92,2.29c1.8,0.94,3.28,1.95,4.43,3.03c1.15,1.08,2,2.24,2.57,3.49c0.56,1.26,0.85,2.63,0.85,4.12
			c0,2.47-0.59,4.58-1.78,6.31c-1.18,1.74-2.87,3.06-5.06,3.96C1106.26,738.8,1103.69,739.26,1100.72,739.26z"/>
		<path class="st0" d="M1131.31,739.26c-3.32,0-6.03-0.91-8.11-2.72c-2.09-1.81-3.13-4.55-3.13-8.24c0-1.57,0.22-3.19,0.66-4.85
			c0.44-1.67,1.12-3.29,2.04-4.88c0.92-1.58,2.07-2.99,3.44-4.25c1.38-1.25,3-2.24,4.88-2.97c1.87-0.73,3.99-1.09,6.36-1.09
			c2.05,0,3.91,0.38,5.57,1.12c1.66,0.74,3,1.92,4.01,3.52c1.01,1.6,1.51,3.7,1.51,6.31c0,1.5-0.21,3.08-0.64,4.75
			c-0.42,1.67-1.08,3.28-1.96,4.85c-0.88,1.56-2.02,2.98-3.39,4.25c-1.38,1.27-2.99,2.28-4.85,3.05
			C1135.84,738.87,1133.71,739.26,1131.31,739.26z M1132.26,735.5c1.13,0,2.14-0.36,3.02-1.09c0.88-0.73,1.65-1.7,2.31-2.92
			c0.65-1.21,1.19-2.54,1.61-3.97c0.43-1.43,0.74-2.83,0.95-4.22c0.21-1.39,0.32-2.65,0.32-3.76c0-2.05-0.36-3.53-1.09-4.43
			c-0.73-0.91-1.71-1.36-2.94-1.36c-1.1,0-2.08,0.36-2.94,1.07c-0.87,0.72-1.64,1.65-2.31,2.82c-0.67,1.16-1.23,2.45-1.67,3.83
			c-0.44,1.4-0.78,2.8-1.01,4.2c-0.23,1.41-0.34,2.7-0.34,3.89c0,1.43,0.16,2.58,0.48,3.44c0.32,0.87,0.78,1.5,1.4,1.91
			C1130.68,735.3,1131.41,735.5,1132.26,735.5z"/>
		<path class="st0" d="M1159.66,739.26c-2.01,0-3.57-0.48-4.66-1.44c-1.09-0.95-1.64-2.26-1.64-3.94c0-0.48,0.03-1.04,0.08-1.67
			c0.05-0.62,0.15-1.32,0.29-2.09c0.14-0.77,0.3-1.58,0.48-2.45l4.61-21.38c0.11-0.45,0.2-0.9,0.27-1.36
			c0.07-0.45,0.11-0.74,0.11-0.89c0-0.94-0.21-1.54-0.64-1.8c-0.43-0.26-1.15-0.39-2.17-0.39h-1.11l0.48-2.76h12.83l-6.31,28.63
			c-0.14,0.62-0.27,1.23-0.37,1.8c-0.11,0.57-0.2,1.14-0.27,1.67c-0.07,0.54-0.1,1.05-0.1,1.54c0,0.76,0.17,1.35,0.5,1.75
			c0.34,0.4,0.79,0.6,1.36,0.6c0.56,0,1.07-0.1,1.54-0.31c0.46-0.21,0.99-0.5,1.59-0.89l1.27,1.77c-0.85,0.87-1.93,1.69-3.24,2.45
			C1163.24,738.87,1161.61,739.26,1159.66,739.26z"/>
		<path class="st0" d="M1196.19,739.26c-1.56,0-2.78-0.23-3.69-0.68c-0.9-0.45-1.55-1.05-1.93-1.8c-0.39-0.74-0.59-1.59-0.59-2.53
			c0-0.28,0.04-0.67,0.11-1.18c0.07-0.5,0.12-0.87,0.16-1.12h-0.43c-1.03,1.43-2.05,2.69-3.07,3.78c-1.03,1.1-2.15,1.95-3.37,2.56
			c-1.22,0.6-2.68,0.91-4.37,0.91c-1.52,0-2.72-0.27-3.6-0.81c-0.88-0.54-1.51-1.25-1.88-2.14c-0.37-0.89-0.56-1.84-0.56-2.85
			c0-0.87,0.11-1.82,0.32-2.87c0.21-1.04,0.4-2,0.58-2.87l1.91-9.18c0.14-0.7,0.26-1.33,0.34-1.93c0.09-0.59,0.13-1.02,0.13-1.3
			c0-0.7-0.21-1.16-0.64-1.38c-0.42-0.23-1.15-0.34-2.17-0.34h-0.95l0.48-2.77h12.72l-3.5,15.6c-0.17,0.83-0.37,1.79-0.58,2.89
			c-0.21,1.09-0.32,1.97-0.32,2.63c0,0.77,0.17,1.38,0.5,1.82c0.34,0.45,0.93,0.68,1.78,0.68c0.78,0,1.57-0.34,2.38-1.02
			c0.82-0.67,1.6-1.57,2.36-2.68c0.76-1.11,1.43-2.34,2.02-3.68c0.59-1.33,1.04-2.67,1.35-3.99l2.81-12.26h7.9l-3.6,16.96
			c-0.14,0.62-0.27,1.23-0.37,1.8c-0.11,0.57-0.2,1.14-0.26,1.67c-0.07,0.54-0.11,1.05-0.11,1.54c0,0.76,0.17,1.35,0.5,1.75
			c0.33,0.4,0.78,0.6,1.35,0.6c0.56,0,1.07-0.1,1.54-0.31c0.46-0.21,0.99-0.5,1.59-0.89l1.27,1.77c-0.85,0.87-1.93,1.69-3.24,2.45
			C1199.76,738.87,1198.13,739.26,1196.19,739.26z"/>
		<path class="st0" d="M1215.59,739.26c-1.27,0-2.43-0.23-3.47-0.68c-1.04-0.45-1.87-1.13-2.49-2.04c-0.62-0.9-0.93-2.04-0.93-3.39
			c0-0.62,0.05-1.35,0.16-2.16c0.11-0.82,0.23-1.55,0.37-2.21l3.18-14.45h-4.08l0.58-2.66c0.74,0,1.56-0.13,2.47-0.39
			s1.83-0.67,2.78-1.25c0.95-0.57,1.89-1.32,2.81-2.24c0.92-0.92,1.81-2.06,2.65-3.42h3.07l-1.38,6.41h6.41l-0.74,3.55h-6.47
			l-3.18,14.3c-0.18,0.77-0.31,1.46-0.4,2.09c-0.09,0.62-0.13,1.18-0.13,1.67c0,0.87,0.24,1.53,0.74,1.96
			c0.49,0.43,1.13,0.65,1.91,0.65c0.81,0,1.56-0.14,2.25-0.42c0.69-0.28,1.32-0.59,1.88-0.94l1.22,1.98
			c-1.17,0.97-2.48,1.82-3.95,2.55C1219.4,738.89,1217.64,739.26,1215.59,739.26z"/>
		<path class="st0" d="M1237.06,739.26c-2.01,0-3.57-0.48-4.66-1.44c-1.1-0.95-1.65-2.26-1.65-3.94c0-0.48,0.03-1.04,0.08-1.67
			c0.05-0.62,0.15-1.32,0.29-2.09s0.3-1.58,0.48-2.45l2.07-9.7c0.11-0.45,0.2-0.9,0.27-1.36c0.07-0.45,0.11-0.75,0.11-0.89
			c0-0.94-0.21-1.54-0.64-1.8c-0.42-0.26-1.15-0.39-2.17-0.39h-0.95l0.53-2.77h12.51l-3.66,16.96c-0.14,0.62-0.27,1.23-0.37,1.8
			c-0.11,0.57-0.2,1.14-0.26,1.67c-0.07,0.54-0.11,1.05-0.11,1.54c0,0.76,0.17,1.35,0.5,1.75c0.33,0.4,0.78,0.6,1.35,0.6
			c0.56,0,1.07-0.1,1.54-0.31c0.46-0.21,0.99-0.5,1.59-0.89l1.27,1.77c-0.85,0.87-1.93,1.69-3.24,2.45
			C1240.63,738.87,1239.01,739.26,1237.06,739.26z M1239.66,706.08c-1.17,0-2.15-0.27-2.94-0.81c-0.79-0.54-1.19-1.35-1.19-2.43
			c0-1.01,0.23-1.82,0.69-2.45c0.46-0.62,1.06-1.09,1.81-1.38c0.74-0.29,1.55-0.44,2.44-0.44c1.13,0,2.12,0.26,2.97,0.76
			c0.85,0.5,1.27,1.35,1.27,2.53c0,0.94-0.24,1.72-0.74,2.35c-0.49,0.62-1.12,1.09-1.88,1.41
			C1241.31,705.93,1240.51,706.08,1239.66,706.08z"/>
		<path class="st0" d="M1259.38,739.26c-3.32,0-6.03-0.91-8.11-2.72c-2.09-1.81-3.13-4.55-3.13-8.24c0-1.57,0.22-3.19,0.66-4.85
			c0.44-1.67,1.12-3.29,2.04-4.88c0.92-1.58,2.07-2.99,3.44-4.25c1.38-1.25,3-2.24,4.88-2.97s3.99-1.09,6.36-1.09
			c2.05,0,3.91,0.38,5.57,1.12c1.66,0.74,3,1.92,4.01,3.52c1.01,1.6,1.51,3.7,1.51,6.31c0,1.5-0.21,3.08-0.64,4.75
			c-0.42,1.67-1.08,3.28-1.96,4.85c-0.88,1.56-2.01,2.98-3.39,4.25c-1.38,1.27-2.99,2.28-4.85,3.05
			C1263.92,738.87,1261.78,739.26,1259.38,739.26z M1260.34,735.5c1.13,0,2.14-0.36,3.02-1.09c0.88-0.73,1.65-1.7,2.31-2.92
			c0.65-1.21,1.19-2.54,1.61-3.97c0.43-1.43,0.74-2.83,0.95-4.22c0.21-1.39,0.32-2.65,0.32-3.76c0-2.05-0.36-3.53-1.09-4.43
			c-0.73-0.91-1.71-1.36-2.94-1.36c-1.1,0-2.08,0.36-2.94,1.07c-0.87,0.72-1.64,1.65-2.31,2.82c-0.67,1.16-1.23,2.45-1.67,3.83
			c-0.44,1.4-0.78,2.8-1.01,4.2c-0.23,1.41-0.34,2.7-0.34,3.89c0,1.43,0.16,2.58,0.48,3.44c0.32,0.87,0.78,1.5,1.4,1.91
			C1258.75,735.3,1259.49,735.5,1260.34,735.5z"/>
		<path class="st0" d="M1305.45,739.26c-2.02,0-3.57-0.48-4.66-1.44c-1.1-0.95-1.65-2.26-1.65-3.94c0-0.73,0.07-1.62,0.21-2.66
			c0.14-1.04,0.35-2.22,0.63-3.55l0.85-4.11c0.1-0.45,0.23-1.03,0.37-1.72c0.14-0.7,0.27-1.42,0.4-2.16
			c0.12-0.74,0.19-1.4,0.19-1.96c0-0.66-0.14-1.32-0.43-1.98c-0.28-0.66-0.88-0.99-1.8-0.99c-0.88,0-1.77,0.42-2.65,1.26
			c-0.88,0.83-1.7,1.88-2.44,3.15c-0.74,1.27-1.39,2.58-1.93,3.94c-0.55,1.36-0.93,2.54-1.14,3.55l-2.71,12.1h-7.95l4.45-20.76
			c0.11-0.45,0.2-0.9,0.27-1.36c0.07-0.45,0.11-0.75,0.11-0.89c0-0.94-0.21-1.54-0.64-1.8c-0.42-0.26-1.15-0.39-2.17-0.39h-0.95
			l0.48-2.77h11.77l-0.59,5.58h0.32c1.34-2.09,2.81-3.63,4.4-4.62c1.59-0.99,3.57-1.48,5.94-1.48c1.52,0,2.71,0.28,3.58,0.83
			c0.87,0.56,1.49,1.29,1.88,2.19c0.39,0.91,0.59,1.89,0.59,2.97c0,0.87-0.12,1.84-0.34,2.92c-0.23,1.08-0.44,2.07-0.61,2.97
			l-1.17,5.58c-0.21,0.94-0.39,1.82-0.53,2.66c-0.14,0.83-0.21,1.62-0.21,2.35c0,0.76,0.17,1.35,0.5,1.75
			c0.33,0.4,0.78,0.6,1.35,0.6c0.56,0,1.08-0.1,1.54-0.31c0.46-0.21,0.99-0.5,1.59-0.89l1.27,1.77c-0.85,0.87-1.93,1.69-3.23,2.45
			C1309.02,738.87,1307.39,739.26,1305.45,739.26z"/>
		<path class="st0" d="M1325.33,739.26c-2.01,0-3.77-0.23-5.27-0.68c-1.5-0.45-2.67-1.11-3.5-1.98c-0.83-0.87-1.25-1.9-1.25-3.08
			c0-1.08,0.27-1.94,0.82-2.58c0.55-0.65,1.26-1.11,2.15-1.41c0.88-0.29,1.78-0.44,2.7-0.44c0,1.22,0.17,2.36,0.5,3.44
			c0.34,1.08,0.89,1.95,1.67,2.61c0.78,0.66,1.8,0.99,3.07,0.99c0.99,0,1.87-0.14,2.63-0.44s1.36-0.74,1.8-1.33
			c0.44-0.59,0.66-1.3,0.66-2.14c0-1.22-0.48-2.17-1.43-2.87c-0.95-0.7-2.48-1.53-4.56-2.5c-2.05-0.97-3.69-2.09-4.93-3.36
			c-1.24-1.27-1.86-2.92-1.86-4.93c0-1.7,0.48-3.17,1.46-4.41c0.97-1.23,2.35-2.19,4.13-2.87c1.78-0.67,3.91-1.01,6.39-1.01
			c2.4,0,4.31,0.23,5.73,0.7c1.41,0.47,2.43,1.07,3.05,1.8c0.62,0.73,0.93,1.53,0.93,2.4c0,1.39-0.55,2.4-1.65,3.02
			c-1.1,0.63-2.58,0.94-4.45,0.94c0-0.94-0.13-1.86-0.4-2.77c-0.27-0.9-0.69-1.66-1.27-2.27c-0.58-0.6-1.39-0.91-2.41-0.91
			c-1.38,0-2.46,0.35-3.26,1.06c-0.79,0.72-1.19,1.58-1.19,2.58c0,1.15,0.49,2.05,1.46,2.71c0.97,0.67,2.48,1.45,4.53,2.35
			c2.3,1.01,3.98,2.16,5.03,3.45c1.06,1.28,1.59,2.9,1.59,4.85c0,1.88-0.49,3.5-1.46,4.85c-0.97,1.36-2.41,2.4-4.32,3.13
			C1330.52,738.89,1328.15,739.26,1325.33,739.26z"/>
	</g>
</g>
<g>
	<g>
		<g>
			<g>
				<g>
					<g>
						<g>
							<g>
								<g>
									<path class="st1" d="M1228.02,220.9c0.67,5.19,1.2,9.67,1.84,14.13c0.9,6.29,1.93,12.55,2.8,18.84
										c0.87,6.3,1.36,12.65,2.46,18.91c0.87,4.91,0.58,9.8,0.64,14.7c0.09,8.03-2.91,14.83-8.61,20.43
										c-3.78,3.71-8.48,5.93-13.53,7.18c-5.58,1.37-11.22,1.09-16.61-1.03c-9.12-3.59-15.56-10.01-18.14-19.5
										c-2.31-8.49-1.21-16.74,3.65-24.39c1.99-3.13,4.26-5.94,6.76-8.63c3.94-4.23,7.83-8.51,11.8-12.71
										c5.41-5.72,10.91-11.37,16.33-17.08c2.85-3.01,5.61-6.11,8.45-9.14C1226.33,222.11,1226.95,221.74,1228.02,220.9z
										 M1187.11,280.14c0.79,1.02,5.36-0.29,7.83-2.19c0.75-0.58,1.28-1.14,1.9-1.73c4.04-3.91,6.66-8.67,8.32-13.99
										c0.35-1.13,0.15-2.16-0.75-3.04c-1.02-1-2.16-1.08-3.39-0.56c-0.9,0.39-1.85,0.74-2.63,1.31
										c-4.29,3.13-8.02,6.75-10.17,11.77C1187.1,274.35,1185.32,278.85,1187.11,280.14z"/>
								</g>
							</g>
							<g>
								<g>
									<path class="st1" d="M1149.67,217.81c0.33,2.92,0.64,5.55,0.93,8.18c0.27,2.43,0.45,4.87,0.8,7.29
										c0.64,4.47,1.51,8.92,2.01,13.41c0.48,4.26,1.01,8.57,0.8,12.83c-0.52,10.65-5.93,17.15-16.33,19.42
										c-5.28,1.15-10.45-0.14-14.83-3.86c-1.9-1.61-3.73-3.27-4.91-5.37c-3.25-5.81-3.55-11.9-0.88-18.04
										c1.75-4.01,4.5-7.24,7.77-10.18c3.55-3.19,6.67-6.84,10.12-10.15C1139.82,226.84,1144.63,222.48,1149.67,217.81z
										 M1121.95,256.08c1.8,1.7,5.89-2.27,7.82-4.69c2.25-2.83,5.4-8.13,3.47-9.88c-2.85-1.63-7.17,3.01-9.21,6.17
										C1122.43,250.16,1120.22,253.95,1121.95,256.08z"/>
								</g>
							</g>
							<g>
								<g>
									<path class="st1" d="M1272.81,306.84c0.46,3.7,0.81,6.6,1.18,9.49c0.69,5.33,1.42,10.64,2.06,15.98
										c0.38,3.16,0.6,6.33,0.91,9.5c0.14,1.46,0.46,2.91,0.49,4.36c0.09,4.21-0.52,8.33-2.68,12.02
										c-3.41,5.81-8.36,9.19-15.32,9.08c-1.96-0.03-4.09,0.29-5.86-0.35c-6.68-2.42-11.54-6.58-13.1-14.04
										c-1.37-6.56,0.12-12.17,4.49-17.03c4.19-4.66,8.61-9.11,12.91-13.67c2.6-2.76,5.11-5.61,7.75-8.33
										C1267.82,311.59,1270.11,309.47,1272.81,306.84z M1258.22,331.31c-0.82-1.16-2.3-1.34-3.47-0.65
										c-4.05,2.4-7.03,5.74-8.64,10.19c-0.47,1.28-0.7,2.75,0.59,3.72c1.24,0.94,2.39,0,3.38-0.64
										C1254.57,340.97,1259.48,333.25,1258.22,331.31z"/>
								</g>
							</g>
						</g>
					</g>
					<path class="st1" d="M886.53,260.86c-3.39,1.8-6.65,3.91-10.18,5.35c-43.39,17.73-84.76,39.15-122.92,66.52
						c-26.57,19.06-50.65,40.75-70.03,67.21c-18,24.58-31.77,51.26-38.42,81.55c2.5,1.77,4.93,1.16,7.43,0.76
						c14.44-2.32,28.93-2.72,43.43-0.61c17.73,2.58,33.48,9.27,45.86,22.64c4.79,5.18,9.29,10.6,12.3,18.94
						c-4.26-2.83-7.22-4.8-10.19-6.75c-25.81-16.92-54.34-21.45-84.4-17.83c-17.01,2.05-33.46,6.79-49.5,12.84
						c-2.86,1.08-5.72,2.15-9.88,3.71c0.79-3.3,0.98-5.2,1.69-6.88c8.76-20.73,16.93-41.72,27.75-61.54
						c14.36-26.33,30.27-51.54,49.77-74.47c18.03-21.2,38.4-39.78,61.34-55.37c11.25-7.64,23.64-13.61,35.52-20.33
						c14.49-8.19,30.25-13.35,45.83-18.88C842.88,270.3,864.38,264.8,886.53,260.86z"/>
				</g>
				<path class="st1" d="M1033.47,260.86c3.39,1.8,6.65,3.91,10.18,5.35c43.39,17.73,84.76,39.15,122.92,66.52
					c26.57,19.06,50.65,40.75,70.03,67.21c18,24.58,31.77,51.26,38.42,81.55c-2.5,1.77-4.93,1.16-7.43,0.76
					c-14.44-2.32-28.93-2.72-43.43-0.61c-17.73,2.58-33.48,9.27-45.86,22.64c-4.79,5.18-9.29,10.6-12.3,18.94
					c4.26-2.83,7.22-4.8,10.19-6.75c25.81-16.92,54.34-21.45,84.4-17.83c17.01,2.05,33.46,6.79,49.5,12.84
					c2.86,1.08,5.72,2.15,9.88,3.71c-0.79-3.3-0.98-5.2-1.69-6.88c-8.76-20.73-16.93-41.72-27.75-61.54
					c-14.36-26.33-30.27-51.54-49.77-74.47c-18.03-21.2-38.4-39.78-61.34-55.37c-11.25-7.64-23.64-13.61-35.52-20.33
					c-14.49-8.19-30.25-13.35-45.83-18.88C1077.12,270.3,1055.62,264.8,1033.47,260.86z"/>
			</g>
			<path class="st2" d="M969.19,246.22c3.02-10.42-1.09-22.68-9.2-29.59c-8.24,8.94-10.89,18.51-9.67,29.73
				c-33.37,2.09-55.89,12.83-55.89,12.83c62.16-11.48,132.92-0.01,132.92-0.01C1006.75,250.55,986.97,247.02,969.19,246.22z"/>
		</g>
		<g>
			<path class="st3" d="M949.31,756.48v72.63c0,10.12-8.21,18.33-18.33,18.33s-18.33-8.21-18.33-18.33v-20.54h-22.64v17.71
				c0,20.49,16.61,37.1,37.1,37.1h7.74c20.49,0,37.1-16.61,37.1-37.1v-69.79H949.31z"/>
		</g>
	</g>
	<path class="st3" d="M842.08,503.95c7.87-2.43,15.87-4.99,23.99-5.98c11.95-1.44,23.54-1.13,34.8,0.74
		c6.34,1.32,46.89,10.78,48.44,38.06v30.26c4.74,3.08,8.97,7.03,12.67,11.88c4.37,5.73,7.63,12.28,9.96,19.47v-61.63
		c1.69-29.58,49.35-38.23,49.35-38.23l-0.19-0.14c10.59-1.55,21.46-1.77,32.65-0.42c8.12,0.98,16.12,3.54,23.99,5.98
		c21.84,6.75,40.76,18.83,58.69,32.67c2.29,1.77,4.04,4.9,8.49,4.63c-1.26-10.41-2.13-20.53-3.76-30.52
		c-3.43-21.1-7.55-42.09-14.07-62.48c-12.45-38.93-30.38-74.75-57.95-105.58c-20.69-23.16-44.96-41.87-69.76-60.11
		c-4.99-3.67-10.09-7.2-16.21-9.88c1.38,1.84,2.59,3.86,4.17,5.51c22.15,23.03,43.7,46.59,62.91,72.16
		c30.54,40.64,50.4,85.82,57.32,136.39l-0.5,0.93c-2.88,1.47-5.36-0.63-7.83-1.59c-14.18-5.53-28.79-9.11-43.95-10.53
		c-22.82-2.13-44.3,1.65-63.88,14.11c-3.13,1.99-6.08,4.16-8.91,6.46l-0.01-0.01c0,0-15.58,12.94-22.39,23.02
		c0,0-5.11-6.56-14.32-15.21c-4-4.06-8.38-7.74-13.05-11.11c-0.73-0.56-1.38-1.12-2.14-1.69l-0.07,0.09
		c-0.74-0.5-1.4-1.07-2.15-1.55c-19.58-12.46-41.07-16.24-63.88-14.11c-15.16,1.42-29.77,5-43.95,10.53
		c-2.47,0.96-4.95,3.06-7.83,1.59l-0.5-0.93c6.92-50.57,26.78-95.75,57.32-136.39c19.21-25.57,40.76-49.13,62.91-72.16
		c1.59-1.65,2.79-3.66,4.17-5.51c-6.11,2.68-11.21,6.21-16.21,9.88c-24.8,18.24-49.06,36.96-69.76,60.11
		c-27.56,30.84-45.5,66.66-57.95,105.58c-6.52,20.4-10.64,41.38-14.07,62.48c-1.63,10-2.5,20.12-3.76,30.52
		c4.44,0.28,6.2-2.86,8.49-4.63C801.32,522.77,820.24,510.7,842.08,503.95z"/>
	<g>
		<g>
			<g>
				<g>
					<path class="st1" d="M544.59,533.75h30.41v91.01c0,10.17,1.16,17.61,3.48,22.29c3.61,8.31,11.49,12.46,23.62,12.46
						c12.07,0,19.91-4.15,23.52-12.46c2.32-4.68,3.48-12.12,3.48-22.29v-91.01h30.41v91.08c0,15.75-2.36,28.01-7.08,36.79
						c-8.79,16.08-25.57,24.12-50.33,24.12c-24.76,0-41.57-8.04-50.43-24.12c-4.72-8.78-7.08-21.04-7.08-36.79V533.75z"/>
				</g>
			</g>
			<g>
				<g>
					<path class="st1" d="M818.13,572.76c4.53,1.87,8.65,5.16,12.33,9.85c2.98,3.82,4.99,8.51,6.02,14.08
						c0.65,3.69,0.97,9.08,0.97,16.19l-0.2,69.06H808.9v-69.77c0-4.15-0.65-7.57-1.94-10.25c-2.46-5.09-7-7.64-13.6-7.64
						c-7.64,0-12.92,3.28-15.83,9.85c-1.49,3.48-2.23,7.68-2.23,12.57v65.24h-27.88v-65.24c0-6.5-0.65-11.22-1.94-14.18
						c-2.33-5.29-6.9-7.94-13.7-7.94c-7.9,0-13.21,2.65-15.93,7.94c-1.49,3.02-2.23,7.51-2.23,13.47v65.95h-28.07V572.56h26.91
						v15.98c3.43-5.69,6.67-9.75,9.71-12.16c5.37-4.29,12.34-6.44,20.89-6.44c8.1,0,14.63,1.84,19.62,5.53
						c4.02,3.42,7.06,7.81,9.13,13.18c3.63-6.44,8.13-11.16,13.5-14.18c5.7-3.02,12.05-4.53,19.04-4.53
						C809,569.94,813.59,570.88,818.13,572.76z"/>
				</g>
			</g>
			<g>
				<g>
					<path class="st1" d="M953.32,585.52c7.92,10.39,11.88,23.8,11.88,40.21c0,17.03-3.91,31.13-11.72,42.33
						c-7.81,11.19-18.71,16.79-32.71,16.79c-8.79,0-15.85-1.81-21.19-5.43c-3.19-2.14-6.64-5.9-10.35-11.26v13.77h-27.3V533.95
						h27.68v52.68c3.52-5.09,7.4-8.97,11.64-11.66c5.02-3.36,11.4-5.03,19.16-5.03C934.43,569.94,945.4,575.13,953.32,585.52z
						 M930.18,652.27c3.98-5.97,5.98-13.81,5.98-23.53c0-7.77-0.98-14.2-2.94-19.3c-3.72-9.66-10.57-14.48-20.57-14.48
						c-10.12,0-17.07,4.73-20.86,14.18c-1.96,5.03-2.94,11.53-2.94,19.5c0,9.39,2.03,17.16,6.07,23.32
						c4.05,6.17,10.22,9.25,18.51,9.25C920.61,661.22,926.2,658.24,930.18,652.27z"/>
				</g>
			</g>
			<g>
				<g>
					<path class="st1" d="M1043.25,569.79c0.35,0.04,1.15,0.09,2.38,0.15v29.36c-1.75-0.21-3.3-0.34-4.66-0.4
						c-1.36-0.06-2.46-0.1-3.3-0.1c-11.14,0-18.62,3.75-22.44,11.26c-2.14,4.22-3.2,10.72-3.2,19.5v52.37h-27.88V572.35h26.42v19.1
						c4.27-7.3,8-12.3,11.17-14.98c5.18-4.49,11.92-6.73,20.21-6.73C1042.46,569.74,1042.89,569.75,1043.25,569.79z"/>
				</g>
			</g>
			<g>
				<g>
					<path class="st1" d="M1130.85,574.57c7.39,3.43,13.48,8.83,18.29,16.21c4.34,6.51,7.15,14.06,8.44,22.65
						c0.75,5.03,1.05,12.28,0.92,21.75h-77.12c0.43,11,4.12,18.7,11.07,23.12c4.23,2.75,9.32,4.12,15.26,4.12
						c6.31,0,11.43-1.67,15.37-5.02c2.15-1.81,4.05-4.33,5.7-7.54h28.26c-0.74,6.5-4.16,13.1-10.26,19.8
						c-9.49,10.66-22.76,15.98-39.83,15.98c-14.09,0-26.52-4.49-37.29-13.48c-10.77-8.99-16.16-23.61-16.16-43.87
						c0-18.99,4.86-33.54,14.59-43.67c9.72-10.13,22.35-15.2,37.86-15.2C1115.16,569.43,1123.46,571.15,1130.85,574.57z
						 M1089.43,599.33c-3.91,4.17-6.37,9.83-7.38,16.96h47.7c-0.5-7.61-2.96-13.37-7.38-17.31c-4.42-3.94-9.89-5.91-16.42-5.91
						C1098.85,593.06,1093.34,595.15,1089.43,599.33z"/>
				</g>
			</g>
			<g>
				<g>
					<path class="st1" d="M1200.76,681.93h-27.68V533.75h27.68V681.93z"/>
				</g>
			</g>
			<g>
				<g>
					<path class="st1" d="M1256.03,681.93h-27.68V533.75h27.68V681.93z"/>
				</g>
			</g>
			<g>
				<g>
					<path class="st1" d="M1324.97,615.28c5.15-0.67,8.84-1.51,11.06-2.52c3.98-1.74,5.97-4.46,5.97-8.14c0-4.49-1.53-7.59-4.58-9.3
						c-3.05-1.71-7.53-2.56-13.44-2.56c-6.63,0-11.32,1.67-14.08,5.02c-1.97,2.48-3.28,5.83-3.94,10.05h-26.71
						c0.59-9.59,3.19-17.46,7.8-23.63c7.35-9.65,19.97-14.47,37.85-14.47c11.64,0,21.98,2.38,31.02,7.14
						c9.04,4.76,13.56,13.74,13.56,26.94v50.27c0,3.48,0.06,7.71,0.2,12.66c0.19,3.76,0.74,6.3,1.65,7.64
						c0.91,1.34,2.27,2.45,4.08,3.32v4.22h-30.11c-0.84-2.21-1.42-4.29-1.75-6.24c-0.33-1.94-0.59-4.15-0.78-6.63
						c-3.84,4.29-8.27,7.95-13.29,10.96c-6,3.55-12.77,5.33-20.32,5.33c-9.64,0-17.61-2.83-23.89-8.5
						c-6.29-5.66-9.43-13.69-9.43-24.07c0-13.47,5.06-23.22,15.17-29.26c5.55-3.28,13.7-5.63,24.47-7.03L1324.97,615.28z
						 M1341.9,628.65c-1.77,1.14-3.57,2.06-5.37,2.77c-1.81,0.7-4.29,1.36-7.44,1.96l-6.3,1.21c-5.91,1.07-10.15,2.38-12.73,3.92
						c-4.36,2.61-6.54,6.67-6.54,12.16c0,4.9,1.33,8.43,3.99,10.61c2.66,2.18,5.9,3.27,9.72,3.27c6.05,0,11.62-1.81,16.72-5.43
						c5.1-3.63,7.74-10.22,7.94-19.81V628.65z"/>
				</g>
			</g>
		</g>
	</g>
</g>
</svg>
